{
	"asset":{
		"copyright":"ljw",
		"generator":"Khronos glTF Blender I/O v3.5.30",
		"version":"2.0"
	},
	"scene":0,
	"scenes":[
		{
			"name":"Scene",
			"nodes":[
				0
			]
		}
	],
	"nodes":[
		{
			"mesh":0,
			"name":"IceFloeLow",
			"rotation":[
				0.7071068286895752,
				0,
				0,
				0.7071068286895752
			],
			"translation":[
				0,
				-0.5009498596191406,
				0
			]
		}
	],
	"materials":[
		{
			"doubleSided":true,
			"name":"MAT_MAIN",
			"pbrMetallicRoughness":{
				"baseColorTexture":{
					"index":0
				},
				"metallicFactor":0,
				"roughnessFactor":0.5527864098548889
			}
		}
	],
	"meshes":[
		{
			"name":"Mesh",
			"primitives":[
				{
					"attributes":{
						"POSITION":0,
						"TEXCOORD_0":1,
						"TEXCOORD_1":2,
						"NORMAL":3
					},
					"indices":4,
					"material":0
				}
			]
		}
	],
	"textures":[
		{
			"sampler":0,
			"source":0
		}
	],
	"images":[
		{
			"bufferView":5,
			"mimeType":"image/png",
			"name":"file1"
		}
	],
	"accessors":[
		{
			"bufferView":0,
			"componentType":5126,
			"count":275,
			"max":[
				7.5196146965026855,
				8.690155029296875,
				6.716753005981445
			],
			"min":[
				-7.519614219665527,
				-8.690155029296875,
				-0.7149489521980286
			],
			"type":"VEC3"
		},
		{
			"bufferView":1,
			"componentType":5126,
			"count":275,
			"type":"VEC2"
		},
		{
			"bufferView":2,
			"componentType":5126,
			"count":275,
			"type":"VEC2"
		},
		{
			"bufferView":3,
			"componentType":5126,
			"count":275,
			"type":"VEC3"
		},
		{
			"bufferView":4,
			"componentType":5123,
			"count":450,
			"type":"SCALAR"
		}
	],
	"bufferViews":[
		{
			"buffer":0,
			"byteLength":3300,
			"byteOffset":0,
			"target":34962
		},
		{
			"buffer":0,
			"byteLength":2200,
			"byteOffset":3300,
			"target":34962
		},
		{
			"buffer":0,
			"byteLength":2200,
			"byteOffset":5500,
			"target":34962
		},
		{
			"buffer":0,
			"byteLength":3300,
			"byteOffset":7700,
			"target":34962
		},
		{
			"buffer":0,
			"byteLength":900,
			"byteOffset":11000,
			"target":34963
		},
		{
			"buffer":0,
			"byteLength":2736499,
			"byteOffset":11900
		}
	],
	"samplers":[
		{
			"magFilter":9729,
			"minFilter":9987
		}
	],
	"buffers":[
		{
			"byteLength":2748400,
			"uri":"data:application/octet-stream;base64,"
		}
	]
}
