{
	"asset":{
		"generator":"Khronos glTF Blender I/O v3.5.30",
		"version":"2.0"
	},
	"extensionsUsed":[
		"KHR_materials_specular",
		"KHR_materials_ior"
	],
	"scene":0,
	"scenes":[
		{
			"name":"Scene",
			"nodes":[
				0
			]
		}
	],
	"nodes":[
		{
			"mesh":0,
			"name":"Water"
		}
	],
	"materials":[
		{
			"doubleSided":true,
			"extensions":{
				"KHR_materials_specular":{
					"specularColorFactor":[
						2.371357614441398,
						2.371357614441398,
						2.371357614441398
					]
				},
				"KHR_materials_ior":{
					"ior":1.4500000476837158
				}
			},
			"name":"ArcticWater.001",
			"normalTexture":{
				"index":0,
				"scale":0.3400000035762787
			},
			"pbrMetallicRoughness":{
				"baseColorFactor":[
					0,
					0.07421350479125977,
					0.16513217985630035,
					1
				],
				"metallicFactor":0,
				"roughnessFactor":0
			}
		}
	],
	"meshes":[
		{
			"name":"Water.001",
			"primitives":[
				{
					"attributes":{
						"POSITION":0,
						"TEXCOORD_0":1,
						"NORMAL":2
					},
					"indices":3,
					"material":0
				}
			]
		}
	],
	"textures":[
		{
			"sampler":0,
			"source":0
		}
	],
	"images":[
		{
			"bufferView":4,
			"mimeType":"image/jpeg",
			"name":"water"
		}
	],
	"accessors":[
		{
			"bufferView":0,
			"componentType":5126,
			"count":121,
			"max":[
				550,
				550,
				1.1102230246251565e-16
			],
			"min":[
				-550,
				-550,
				-1.1102230246251565e-16
			],
			"type":"VEC3"
		},
		{
			"bufferView":1,
			"componentType":5126,
			"count":121,
			"type":"VEC2"
		},
		{
			"bufferView":2,
			"componentType":5126,
			"count":121,
			"type":"VEC3"
		},
		{
			"bufferView":3,
			"componentType":5123,
			"count":600,
			"type":"SCALAR"
		}
	],
	"bufferViews":[
		{
			"buffer":0,
			"byteLength":1452,
			"byteOffset":0,
			"target":34962
		},
		{
			"buffer":0,
			"byteLength":968,
			"byteOffset":1452,
			"target":34962
		},
		{
			"buffer":0,
			"byteLength":1452,
			"byteOffset":2420,
			"target":34962
		},
		{
			"buffer":0,
			"byteLength":1200,
			"byteOffset":3872,
			"target":34963
		},
		{
			"buffer":0,
			"byteLength":157427,
			"byteOffset":5072
		}
	],
	"samplers":[
		{
			"magFilter":9729,
			"minFilter":9987
		}
	],
	"buffers":[
		{
			"byteLength":162500,
			"uri":"data:application/octet-stream;base64,"
		}
	]
}
